<?xml version="1.0" encoding="utf-8"?>
<!-- Generator: Adobe Illustrator 24.0.1, SVG Export Plug-In . SVG Version: 6.00 Build 0)  -->
<svg version="1.1" id="Layer_1" xmlns="http://www.w3.org/2000/svg" xmlns:xlink="http://www.w3.org/1999/xlink" x="0px" y="0px"
	 viewBox="0 0 595.275 311.111" enable-background="new 0 0 595.275 311.111" xml:space="preserve">
<rect x="0" y="0" fill="#041E42" width="595.275" height="311.111"/>
<g>
	<g>
		<path fill="#FFFFFF" d="M97.312,199.922c-13.922,0-25.249,11.327-25.249,25.249c0,13.922,11.327,25.249,25.249,25.249
			c13.922,0,25.249-11.327,25.249-25.249C122.561,211.249,111.234,199.922,97.312,199.922z M97.312,243.92
			c-10.338,0-18.749-8.411-18.749-18.749c0-10.338,8.411-18.749,18.749-18.749s18.749,8.411,18.749,18.749
			C116.061,235.509,107.65,243.92,97.312,243.92z"/>
		<path fill="#FFFFFF" d="M189.811,201.716h-1.25v1.25v30.074c0,5.995-4.878,10.873-10.875,10.873
			c-5.996,0-10.875-4.878-10.875-10.873v-30.074v-1.25h-1.25h-4h-1.25v1.25v30.074c0,5.995-4.878,10.873-10.875,10.873
			c-5.996,0-10.873-4.878-10.873-10.873v-30.074v-1.25h-1.25h-4h-1.25v1.25v30.074c0,9.579,7.793,17.373,17.373,17.373
			c5.821,0,10.97-2.888,14.125-7.294c3.155,4.406,8.304,7.294,14.125,7.294c9.581,0,17.375-7.794,17.375-17.373v-30.074v-1.25h-1.25
			H189.811z"/>
		<path fill="#FFFFFF" d="M230.317,199.718c-13.923,0-25.25,11.327-25.25,25.25v22.201v1.25h1.25h4h1.25v-1.25v-22.201
			c0-10.339,8.411-18.75,18.75-18.75c10.34,0,18.752,8.411,18.752,18.75v22.201v1.25h1.25h4h1.25v-1.25v-22.201
			C255.569,211.045,244.241,199.718,230.317,199.718z"/>
	</g>
	<g>
		<path fill="#FFFFFF" d="M364.825,199.92c-13.924,0-25.251,11.327-25.251,25.251c0,13.924,11.327,25.251,25.251,25.251
			s25.251-11.327,25.251-25.251C390.076,211.247,378.749,199.92,364.825,199.92z M364.825,243.922
			c-10.339,0-18.751-8.412-18.751-18.751c0-10.339,8.412-18.751,18.751-18.751s18.751,8.412,18.751,18.751
			C383.576,235.51,375.164,243.922,364.825,243.922z"/>
		<path fill="#FFFFFF" d="M443.324,201.716h-1.25v1.25v22.205c0,10.338-8.412,18.748-18.752,18.748
			c-10.339,0-18.75-8.41-18.75-18.748v-22.205v-1.25h-1.25h-4h-1.25v1.25v22.205c0,13.922,11.327,25.248,25.25,25.248
			c13.924,0,25.252-11.326,25.252-25.248v-22.205v-1.25h-1.25H443.324z"/>
		<path fill="#FFFFFF" d="M507.846,162.962v-1.25h-1.25h-4h-1.25v1.25v36.926l-18.959,0.021c-13.922,0-25.249,11.327-25.249,25.25
			c0,13.922,11.327,25.248,25.25,25.248h7.849c7.832,0,17.433-7.726,17.608-17.319L507.846,162.962z M501.345,232.97
			c-0.103,5.633-6.345,10.937-11.108,10.937h-7.849c-10.339,0-18.75-8.41-18.75-18.748c0-10.339,8.412-18.75,18.752-18.75
			l18.973-0.022C501.393,212.434,501.451,227.169,501.345,232.97z"/>
		<path fill="#FFFFFF" d="M322.828,233.04v-49.742c-2.264-1.143-4.435-2.439-6.5-3.881v53.623c0,9.579,7.794,17.373,17.373,17.373
			h1.25v-1.25v-4v-1.25h-1.25C327.706,243.913,322.828,239.035,322.828,233.04z"/>
		<path fill="#FFFFFF" d="M271.229,212.005c0-9.693,4.35-18.386,11.193-24.244c-2.155-0.829-4.155-1.969-5.948-3.365
			c-7.234,6.99-11.745,16.779-11.745,27.609c0,21.182,17.233,38.414,38.416,38.414h1.25v-1.25v-4v-1.25h-1.25
			C285.547,243.919,271.229,229.602,271.229,212.005z"/>
	</g>
</g>
<path fill="#FFFFFF" d="M272.569,87.949c-1.522-2.671-2.403-5.752-2.403-9.039c0-10.108,8.224-18.332,18.332-18.332
	c3.739,0,7.218,1.131,10.12,3.061c-2.155,4.854-3.362,10.22-3.362,15.864c0,1.04,0.053,2.066,0.133,3.086
	c-0.715-0.036-1.436-0.055-2.16-0.055C285.728,82.534,278.683,84.508,272.569,87.949z M268.528,159.055
	c-10.626-7.684-17.56-20.174-17.56-34.26c0-3.6,0.455-7.096,1.306-10.433c-0.352-0.011-0.704-0.027-1.059-0.027
	c-19.433,0-35.242,15.81-35.242,35.243c0,19.432,15.809,35.242,35.242,35.242c7.406,0,14.282-2.303,19.961-6.221
	c-2.343-3.633-3.709-7.953-3.709-12.588C267.467,163.589,267.839,161.253,268.528,159.055z M270.108,155.255
	c3.165-6.053,8.908-10.551,15.766-12.021c0.648-0.141,1.308-0.248,1.975-0.332c0.659-0.084,1.325-0.141,1.999-0.166
	c0.305-0.012,0.61-0.023,0.918-0.023c1.081,0,2.144,0.08,3.186,0.223c-0.326-2.377-0.508-4.801-0.508-7.266
	c0-11.844,3.885-22.794,10.442-31.655c-1.485-1.85-2.81-3.833-3.945-5.936c-0.318-0.591-0.621-1.191-0.91-1.801
	c-0.289-0.607-0.561-1.225-0.818-1.85c-1.023-2.479-1.795-5.086-2.294-7.789c-0.89-0.062-1.784-0.105-2.689-0.105
	c-6.622,0-12.856,1.692-18.294,4.665c-0.601,0.329-1.189,0.676-1.771,1.035c-0.573,0.355-1.135,0.727-1.688,1.109
	c-6.204,4.305-11.075,10.393-13.872,17.52c-0.246,0.627-0.477,1.262-0.69,1.904c-0.212,0.641-0.409,1.287-0.588,1.941
	c-0.88,3.216-1.359,6.596-1.359,10.086C254.968,137.212,260.916,148.261,270.108,155.255z M393.585,110.129
	c5.098-2.678,10.803-4.343,16.853-4.73c-1.564-17.998-16.703-32.169-35.1-32.169c-0.704,0-1.401,0.026-2.095,0.067
	c0.322,2.022,0.495,4.094,0.495,6.206c0,3.276-0.409,6.458-1.17,9.503C381.412,93.914,388.725,101.256,393.585,110.129z
	 M299.697,85.059c0.113,0.71,0.253,1.411,0.407,2.106c0.356,1.599,0.816,3.157,1.382,4.667c0.251,0.67,0.525,1.326,0.815,1.977
	c0.284,0.637,0.587,1.265,0.908,1.882c0.938,1.806,2.023,3.521,3.247,5.127c2.46-2.842,5.207-5.428,8.208-7.698
	c0.566-0.428,1.144-0.84,1.727-1.245c0.58-0.404,1.17-0.794,1.767-1.175c8.093-5.169,17.661-8.215,27.925-8.347
	c0.232-0.003,0.462-0.018,0.694-0.018c0.667,0,1.328,0.026,1.99,0.05c0.912,0.034,1.819,0.091,2.72,0.17
	c6.16,0.542,12.02,2.136,17.404,4.601c0.549-2.466,0.847-5.024,0.847-7.652c0-1.954-0.167-3.87-0.475-5.739
	c-0.109-0.661-0.238-1.316-0.384-1.965c-0.146-0.654-0.311-1.301-0.494-1.939c-4.206-14.757-17.801-25.597-33.889-25.597
	c-13.273,0-24.853,7.379-30.861,18.248c-0.335,0.605-0.654,1.221-0.954,1.848c-0.31,0.651-0.597,1.316-0.868,1.989
	c-1.644,4.068-2.558,8.506-2.558,13.155c0,1.178,0.061,2.342,0.174,3.49C299.499,83.688,299.589,84.376,299.697,85.059z
	 M458.431,144.657c-1.056,0-2.084,0.109-3.094,0.271c0.055,0.873,0.091,1.75,0.091,2.635c0,11.225-4.407,21.432-11.571,29.008
	c3.542,4.086,8.755,6.686,14.574,6.686c10.642,0,19.3-8.658,19.3-19.299C477.73,153.315,469.072,144.657,458.431,144.657z
	 M451.389,146.007c-0.028-0.699-0.073-1.393-0.139-2.082c-0.064-0.688-0.146-1.369-0.247-2.047
	c-2.687-17.962-17.906-31.874-36.444-32.541c-0.463-0.017-0.925-0.035-1.392-0.035c-0.204,0-0.405,0.012-0.608,0.016
	c-0.672,0.01-1.339,0.039-2.002,0.084c-5.455,0.369-10.6,1.885-15.194,4.311c2.766,6.096,4.42,12.797,4.695,19.848
	c0.027,0.701,0.054,1.402,0.054,2.11c0,0.207-0.014,0.41-0.016,0.615c-0.011,0.9-0.042,1.793-0.097,2.682
	c-0.814,13.27-6.496,25.238-15.286,34.143c7.009,7.799,17.167,12.715,28.454,12.715c9.745,0,18.646-3.668,25.409-9.688
	c0.512-0.457,1.015-0.924,1.502-1.406c0.491-0.486,0.971-0.984,1.436-1.498c6.157-6.793,9.914-15.801,9.914-25.668
	C451.428,147.042,451.409,146.524,451.389,146.007z M301.723,164.151c-0.38-0.598-0.747-1.203-1.103-1.816
	c-2.711-4.674-4.733-9.791-5.926-15.219c-1.269-0.264-2.583-0.404-3.928-0.404c-0.143,0-0.281,0.018-0.423,0.021
	c-0.674,0.014-1.338,0.064-1.994,0.146c-0.671,0.084-1.33,0.205-1.978,0.355c-5.686,1.332-10.399,5.178-12.918,10.303
	c-0.297,0.605-0.562,1.227-0.796,1.865c-0.232,0.635-0.431,1.283-0.597,1.945c-0.373,1.496-0.593,3.053-0.593,4.662
	c0,3.709,1.07,7.166,2.892,10.109c0.356,0.578,0.74,1.135,1.153,1.668c0.405,0.523,0.833,1.027,1.289,1.506
	c3.518,3.697,8.471,6.016,13.965,6.016c8.175,0,15.163-5.119,17.97-12.314c-2.142-2.182-4.097-4.545-5.841-7.066
	C302.492,165.345,302.103,164.751,301.723,164.151z M395.949,139.489c0.065-0.846,0.108-1.695,0.13-2.551
	c0.011-0.422,0.032-0.844,0.032-1.27c0-7.079-1.51-13.807-4.206-19.898c-0.275-0.621-0.558-1.237-0.857-1.845
	c-0.294-0.596-0.593-1.189-0.91-1.771c-4.36-8.008-10.882-14.67-18.767-19.225c-0.584-0.338-1.174-0.664-1.772-0.978
	c-0.598-0.313-1.199-0.618-1.812-0.907c-6.053-2.861-12.777-4.519-19.867-4.682c-0.381-0.008-0.76-0.028-1.143-0.028
	c-0.474,0-0.941,0.022-1.412,0.036c-0.85,0.023-1.692,0.068-2.53,0.136c-7.775,0.618-15.049,3.036-21.397,6.853
	c-0.591,0.355-1.172,0.727-1.747,1.106c-0.58,0.382-1.149,0.779-1.712,1.185c-3.29,2.375-6.276,5.141-8.891,8.234
	c-0.436,0.518-0.861,1.047-1.277,1.582c-0.411,0.529-0.811,1.066-1.2,1.611c-5.762,8.072-9.167,17.938-9.167,28.59
	c0,2.811,0.249,5.564,0.704,8.248c0.13,0.771,0.277,1.539,0.443,2.299c0.182,0.828,0.385,1.648,0.607,2.463
	c1.232,4.498,3.076,8.744,5.454,12.635c0.359,0.59,0.733,1.17,1.117,1.742c0.386,0.574,0.787,1.139,1.196,1.697
	c0.922,1.258,1.902,2.471,2.936,3.635c0.565,0.635,1.142,1.256,1.737,1.861c0.546,0.555,1.105,1.096,1.677,1.625
	c8.801,8.137,20.558,13.123,33.461,13.123c12.431,0,23.794-4.631,32.479-12.246c0.501-0.438,0.991-0.887,1.474-1.346
	c0.494-0.469,0.978-0.947,1.453-1.436c7.221-7.451,12.113-17.16,13.507-27.957C395.797,141.177,395.884,140.337,395.949,139.489z"/>
</svg>
